<?xml version="1.0" encoding="utf-8"?>
<!-- Generator: Adobe Illustrator 24.3.0, SVG Export Plug-In . SVG Version: 6.00 Build 0)  -->
<svg version="1.1" xmlns="http://www.w3.org/2000/svg" xmlns:xlink="http://www.w3.org/1999/xlink" x="0px" y="0px"
	 viewBox="0 0 612 792" style="enable-background:new 0 0 612 792;" xml:space="preserve">
<style type="text/css">
	.st0{stroke:#000000;stroke-miterlimit:10;}
	.st1{font-family:'MyriadPro-Regular';}
	.st2{font-size:100px;}
	.st3{fill:url(#SVGID_1_);stroke:#000000;stroke-miterlimit:10;}
	.st4{fill:url(#SVGID_2_);stroke:#000000;stroke-miterlimit:10;}
	.st5{fill:url(#SVGID_3_);stroke:#000000;stroke-miterlimit:10;}
	.st6{fill:url(#SVGID_4_);stroke:#000000;stroke-miterlimit:10;}
	.st7{fill:url(#SVGID_5_);stroke:#000000;stroke-miterlimit:10;}
	.st8{fill:url(#SVGID_6_);stroke:#000000;stroke-miterlimit:10;}
	.st9{fill:url(#SVGID_7_);stroke:#000000;stroke-miterlimit:10;}
	.st10{fill:url(#SVGID_8_);stroke:#000000;stroke-miterlimit:10;}
</style>
<g id="Layer_1">
</g>
<g id="Layer_3">
	<text transform="matrix(1.790714e-03 1 -1 1.790714e-03 270.8431 551.2031)" class="st0 st1 st2">TALK</text>
	<text transform="matrix(1.790714e-03 1 -1 1.790714e-03 270.8437 29.6303)" class="st0 st1 st2">PHIL</text>
</g>
<g id="Layer_4">
	<g id="sJ62Qo_1_">
		<g>
			
				<linearGradient id="SVGID_1_" gradientUnits="userSpaceOnUse" x1="254.5595" y1="249.4084" x2="562.8812" y2="249.4084" gradientTransform="matrix(1.790714e-03 1 -1 1.790714e-03 552.0378 -24.7335)">
				<stop  offset="0" style="stop-color:#FFFFFF"/>
				<stop  offset="1" style="stop-color:#2E3192"/>
			</linearGradient>
			<path class="st3" d="M262.28,245.33c0.28-0.18,0.41-0.22,0.45-0.31c8.36-14.86,22.39-17.9,38.45-11.67
				c4.67,1.81,9.15,4.35,13.3,7.17c4.35,2.95,8.74,3.45,13.76,2.73c4.21-0.61,8.53-0.53,12.8-0.52c6.15,0.02,10.6,3.25,13.92,8.13
				c1.79,2.62,3.52,5.35,4.78,8.25c1.78,4.11,4.66,6.84,8.7,8.51c2.13,0.88,4.23,1.9,6.43,2.53c17.54,5.05,23.15,21,17.33,36.23
				c0.13,0.12,0.27,0.36,0.4,0.35c8.06-0.23,10.77,5.26,11.12,11.51c0.23,4.14-0.47,8.32-0.56,12.48c-0.02,1.08,0.36,2.55,1.11,3.2
				c5.59,4.89,8.05,11.05,8.18,18.38c0.03,1.76,0.6,3.63,1.36,5.24c3.95,8.3,4.21,16.66,1.02,25.25c-0.46,1.23-0.46,2.99,0.07,4.18
				c7.02,15.84,5.84,30.92-3.8,45.36c-0.52,0.78-0.69,2-0.6,2.97c0.58,6.17,0.76,12.32-1.34,18.26
				c-2.61,7.39-7.68,12.47-15.09,15.03c-1.99,0.69-2.93,1.73-3.55,3.73c-1.58,5.02-3.52,9.92-5.26,14.88
				c-1.96,5.59-6.26,8.11-11.79,8.51c-3.42,0.24-5.8,1.02-7.34,4.52c-2.03,4.62-6.2,6.62-11.31,6.81
				c-0.76,5.82-1.04,11.74-5.36,16.29c-4.37,4.6-9.96,5.12-15.96,4.61c-1.84,6.18-6.91,8.35-12.43,9.42
				c-9.08,1.75-18.15,2.47-26.13-3.86c-0.52-0.41-1.63-0.18-2.45-0.08c-5.99,0.69-11.97,1.58-17.98,2.11
				c-9.07,0.8-16.32-3.16-22.14-9.64c-3.57-3.98-6.84-8.38-9.46-13.03c-4.03-7.14-8.81-12.65-16.56-16.57
				c-13.38-6.77-27.12-25.88-19.98-48.08c0.24-0.73,0.46-1.47,0.64-2.22c1.34-5.54,1.34-5.55-3.63-8.41
				c-5.26-3.02-8.94-7.46-11.3-12.94c-6.61-15.35-6.24-30.71,1.15-45.59c2.14-4.32,3.6-8.1,3.22-13.11
				c-0.9-11.96,3.16-22.15,12.57-30.09c1.31-1.1,1.78-3.69,1.88-5.63c0.33-6.12-0.07-12.3,0.49-18.39
				c0.73-7.93,3.32-15.33,9.42-20.84c2.48-2.25,5.48-4.03,8.49-5.55c2-1,2.92-2.15,2.71-4.28c-0.31-3.27-0.88-6.54-0.9-9.82
				C231.04,255.13,246.21,242.46,262.28,245.33z M290.25,502.94c0.14-0.33,0.29-0.67,0.43-1c0.41,0.1,0.81,0.21,1.23,0.3
				c19.3,4.08,36.4-0.82,51.36-13.21c6.9-5.71,10.32-13.34,9.16-22.51c-0.13-1.05-1.32-2.69-2.19-2.81
				c-5.31-0.73-10.69-1.67-15.99-1.4c-4.74,0.24-9.4,2-14.11,2.98c-3.98,0.83-7.92-1.5-8.84-5.4c3.48,3.25,7.15,2.09,10.76,1.08
				c8.15-2.28,16.25-4.84,24.91-2.95c3.96,0.86,7.97,1.52,11.94,2.38c11.41,2.46,16.46,0.41,21.77-10.03
				c2.45-4.83,4.11-10.16,5.45-15.44c2.61-10.27-1.14-18.23-9.7-24.25c-10.53-7.42-22.19-12.43-34.3-16.55
				c-9.4-3.2-19.07-4.45-29.03-4.24c0.69-0.49,1.39-0.94,2.09-0.94c6.25-0.03,12.56-0.55,18.72,0.18
				c12.13,1.44,23.32,5.97,33.97,11.9c8.64,4.82,18.09,2.6,22.02-5.8c6.46-13.8,6.89-28,0.7-42.12c-1.62-3.71-4.44-6.33-8.5-7.16
				c-5.04-1.03-10.1-2.24-15.22-2.65c-8.97-0.72-18.02-0.52-26.96-1.45c-5.04-0.52-10-2.32-14.86-3.95
				c-1.94-0.65-3.75-2.28-2.48-5.36c6.97,5.94,15.3,6.84,23.65,7.13c4.44,0.16,9.33,0.29,13.3-1.32
				c8.47-3.42,12.71-10.62,13.22-19.66c0.54-9.58-3.35-17.12-12.26-21.04c-4.63-2.04-9.82-3.13-14.87-3.83
				c-7.88-1.09-15.78-0.51-23.51,1.66c-1.46,0.41-3.48,0.83-3.6-1.46c-0.23-4.7-0.08-9.42-0.09-14.13c0.19-0.09,0.38-0.17,0.57-0.26
				c1.42,3.59,2.83,7.18,4.26,10.8c7.84-0.06,10.38-4.62,6.35-11.6c-2.7-4.67-6.96-6.9-12.13-7.51c-7.9-0.93-15.12,1.18-22.28,4.49
				c-6.63,3.07-13.51,5.84-20.56,7.73c-8.07,2.16-14.56-1.59-16.6-8.6c4.75,5.4,10.77,6.87,17.1,5.03
				c6.47-1.88,12.59-4.95,18.95-7.29c2.63-0.97,3.23-2.53,3.24-5.17c0.05-10.88,6.13-18.25,16.73-20.69
				c0.49-0.11,0.99-0.21,2.29-0.48c-8.99-6.13-17.56-11.23-27.97-12.16c-8.68-0.78-17.82,5.14-20.89,13.44
				c4.7,4.23,6.76,7.6,7.02,11.63c-1.04-1.31-1.93-2.57-2.96-3.69c-3.53-3.87-7.72-6.67-13.14-6.6c-9.74,0.13-16.24,5.61-20.61,13.7
				c-4.36,8.07-2.1,15.57,3.28,22.33c2.72,3.42,5.77,6.56,8.64,9.79c-3.17-1.92-6.55-4.03-10-6.01c-0.95-0.55-2.21-1.21-3.17-1.02
				c-6.16,1.24-11.37,4.24-14.87,9.53c-7.3,11.02-6.67,23.19-5.26,35.48c3.58-0.01,6.66-0.19,9.71,0.03
				c3.08,0.22,6.13,0.84,9.2,1.28c-0.01,0.28-0.02,0.56-0.04,0.84c-9.77-0.57-19.79-0.71-26.47,7.65
				c-6.13,7.66-8.36,16.92-6.85,27.25c8.49-3.51,16.84-4.2,25.42-2.68c-0.96,0.48-1.96,0.63-2.97,0.79
				c-4.33,0.73-8.7,1.26-12.97,2.24c-7.71,1.78-13.04,6.3-15.77,13.95c-5.15,14.44-4.73,28.41,2.91,41.91
				c5.45,9.63,12.09,11.75,22.06,6.96c5.05-2.43,10.03-5.01,15.02-7.54c0.67-0.34,1.8-0.78,1.82-1.23c0.18-3.1,2.13-2.7,3.91-1.92
				c2.09,0.91,2.93,2.56,1.96,4.15c-2.07,0.67-3.57,0.93-4.86,1.61c-5.93,3.11-11.51,7.25-17.77,9.27
				c-6.31,2.03-8.64,5.96-9.67,11.66c-0.18,0.97-0.42,1.93-0.63,2.89c-4.03,17.75,4.81,35.12,21.59,42.23
				c4.31,1.83,7.67,4.58,10.24,8.48c3.81,5.78,7.48,11.68,11.7,17.16c3.95,5.13,8.3,10.54,15.33,11.08
				c5.82,0.45,11.91,0.33,17.59-0.89c7.12-1.52,14.05-4.14,20.84-6.85c3.29-1.32,5.14-4.46,4.61-8.36
				c-0.48-3.48-3.33-4.21-6.05-5.25C300.89,507.4,295.58,505.12,290.25,502.94z M407.19,393.18c-3.17,0.41-3.48-1.43-3.21-3.46
				c0.76-5.63,1.64-11.24,2.48-16.86c0.21-0.16,0.43-0.32,0.64-0.48c0.54,0.9,1.39,1.74,1.56,2.71c0.25,1.38-0.12,2.86,0.03,4.27
				c0.07,0.69,0.71,1.31,1.1,1.97c0.51-0.45,1.28-0.8,1.49-1.37c2.48-6.56,2.49-13.13-0.49-19.53c-1.06-2.27-2.68-3.39-5.22-1.44
				c-2.24,1.72-4.17,0.81-4.79-1.69c-0.79-3.16-1.1-6.46-1.46-9.71c-0.08-0.68,0.52-1.43,0.81-2.14c0.29-0.01,0.57-0.01,0.86-0.02
				c1.07,2.78,2.13,5.57,3.17,8.27c1.73-0.43,3.19-0.79,4.64-1.15c1.16-6.8-1.33-11.69-7.35-14.46c-3.85,5.08-5.27,5.48-9.25,2.37
				c4.91-3.46,7.34-8.38,8.07-14.13c0.57-4.5,0.87-9.11-2.18-12.97c-2.88-3.65-8.05-2.75-9.53,1.58c-1.39,4.05-2.6,8.16-3.92,12.22
				c-1.17,3.59-3.68,5.45-7.38,5.44c-1.17,0-2.33-0.23-3.47-0.35c-1.27,2.34-2.45,4.51-3.7,6.8c3.98,0.73,7.63,1.37,11.26,2.08
				c5.96,1.17,9.95,4.52,12.29,10.25c3.13,7.64,5.28,15.56,4.92,23.71c-0.64,14.19-3.3,27.63-19.24,33.2c0,0,0.06,0.23,0.2,0.38
				c0.38,0.4,0.79,0.77,1.19,1.14c6.33,5.97,9.76,13.26,9.47,22.01c-0.38,11.45-4.9,21.29-12.44,29.78
				c-2.93,3.3-6.73,4.88-11.19,4.6c-3.01-0.19-6.01-0.47-9.18-0.72c-0.92,18.37-11.46,29.34-26.97,36.52
				c3.68,5.58,3.71,5.9,0.75,8.13c-0.91-1.07-1.68-2.33-2.78-3.17c-1.24-0.96-2.89-2.35-4.14-2.16c-3.56,0.55-7.01,1.81-10.65,2.83
				c5.8,6.04,6.23,10.6,1.11,15.22c-2.66,2.4-5.92,4.14-9.01,6.02c-1.6,0.98-3.4,1.63-5.62,2.66c8.93,3.95,17.16,2.99,25.2-0.32
				c3.14-1.29,3.32-3.22,1.41-6.06c-0.42-0.63-0.87-1.38-0.9-2.09c-0.05-1.04-0.05-2.41,0.55-3.05c0.41-0.43,1.96-0.01,2.88,0.34
				c2.05,0.78,3.96,1.92,6.04,2.61c8.22,2.75,14.49-1.03,15.92-9.57c0.23-1.39,0-2.86,0.11-4.28c0.14-1.85-0.45-3.04-2.28-3.81
				c-1.89-0.8-3.11-2.27-2.75-4.76c1.42,0.52,2.62,1.03,3.86,1.41c5.25,1.62,10.22,0.32,12.67-3.61c3.32-5.31,4.5-11.3,5.42-17.92
				c-1.63,0.45-2.8,0.77-4.04,1.12c0.95-3.46,3.84-5.26,6.87-4.43c2.36,0.65,3.39,3.29,2.47,5.16c-1.4,2.86-2.39,5.92-3.55,8.89
				c0.45,0.37,0.91,0.75,1.36,1.12c2.37-1.37,5.35-2.24,6.97-4.22c2.51-3.07,4.4-6.77,5.97-10.45c1.84-4.32,2.92-8.96,4.61-13.35
				c0.65-1.68,2.08-3.06,3.15-4.58c0.26,0.13,0.53,0.26,0.79,0.4c0.15,1.33,0.3,2.66,0.45,4.02c10.81-3.28,16.4-15.28,12.89-27.47
				c-1.92,0.23-3.84,0.45-5.89,0.69c-0.3,1.6-0.26,3.28-0.95,4.57c-0.8,1.49-2.24,2.63-3.41,3.93c-0.35-1.65-1.16-3.36-0.94-4.93
				c0.48-3.46,1.73-6.81,2.2-10.27c0.9-6.52,0.38-12.75-4.77-17.74c-0.82-0.79-1.87-2.48-1.55-3.08c0.66-1.24,2.17-2.03,3.02-2.74
				c3.76,8.44,7.46,16.44,6.22,26c1.86-0.41,3.44-0.3,4.27-1.04c2.57-2.3,5.56-4.54,7.13-7.47c5.35-9.96,5.5-20.64,2.74-31.39
				c-0.5-1.94-1.81-3.73-3.03-5.39c-0.45-0.61-1.77-0.94-2.59-0.8c-0.47,0.08-0.92,1.32-1.06,2.09
				C407.26,390.33,407.29,391.66,407.19,393.18z M373.14,289.64c0.38,0.13,0.76,0.25,1.14,0.38c-0.14,1.28-0.38,2.56-0.42,3.85
				c-0.12,3.82-1.18,7.98-0.03,11.39c2.08,6.17,3.65,12.13,2.53,18.66c-0.14,0.79,0.61,2.25,1.3,2.52c0.78,0.31,2.15-0.12,2.89-0.7
				c0.8-0.63,1.35-1.74,1.72-2.74c2.28-6.15,4.69-12.27,6.67-18.52c3.73-11.77-0.32-22.39-11.09-28.44
				c-4.36-2.45-9.19-4.15-13.96-5.73c-2.78-0.92-4.51-2.45-5.63-5.02c-1.3-3.02-2.53-6.1-4.12-8.96
				c-5.31-9.53-15.95-13.16-25.65-9.27c4.12,2.78,8.48,5.73,12.85,8.67c-5.25-1.09-9.97-3.12-14.87-4.48
				c-6.84-1.9-13.36-1.39-18.33,4.58c-2.97,3.57-4.04,7.87-4.52,12.86c7.65-1.71,15.04-2.39,22.05,1.28
				c7.55,3.95,10.16,10.75,10.3,18.96c12.12,0.22,23.91,0.8,32.83,9.92C370.31,295.63,371.73,292.63,373.14,289.64z"/>
			
				<linearGradient id="SVGID_2_" gradientUnits="userSpaceOnUse" x1="258.364" y1="259.1469" x2="555.2903" y2="259.1469" gradientTransform="matrix(1.790714e-03 1 -1 1.790714e-03 552.0378 -24.7335)">
				<stop  offset="0" style="stop-color:#FFFFFF"/>
				<stop  offset="1" style="stop-color:#2E3192"/>
			</linearGradient>
			<path class="st4" d="M290.25,502.94c5.34,2.19,10.64,4.46,16.03,6.53c2.72,1.04,5.57,1.77,6.05,5.25
				c0.53,3.9-1.32,7.04-4.61,8.36c-6.78,2.72-13.72,5.33-20.84,6.85c-5.68,1.22-11.76,1.33-17.59,0.89
				c-7.03-0.54-11.38-5.95-15.33-11.08c-4.22-5.48-7.89-11.38-11.7-17.16c-2.57-3.89-5.93-6.65-10.24-8.48
				c-16.79-7.11-25.62-24.48-21.59-42.23c0.22-0.96,0.46-1.92,0.63-2.89c1.03-5.7,3.36-9.63,9.67-11.66
				c6.27-2.02,11.84-6.16,17.77-9.27c1.29-0.68,2.79-0.94,4.86-1.61c0.97-1.6,0.13-3.24-1.96-4.15c-1.78-0.78-3.73-1.17-3.91,1.92
				c-0.03,0.45-1.15,0.89-1.82,1.23c-5,2.53-9.97,5.12-15.02,7.54c-9.97,4.79-16.61,2.68-22.06-6.96
				c-7.64-13.5-8.06-27.47-2.91-41.91c2.73-7.66,8.06-12.17,15.77-13.95c4.27-0.98,8.64-1.52,12.97-2.24c1-0.17,2.01-0.31,2.97-0.79
				c-8.58-1.52-16.93-0.83-25.42,2.68c-1.51-10.33,0.73-19.58,6.85-27.25c6.68-8.35,16.7-8.21,26.47-7.65
				c0.01-0.28,0.02-0.56,0.04-0.84c-3.06-0.44-6.12-1.06-9.2-1.28c-3.05-0.22-6.14-0.04-9.71-0.03c-1.41-12.3-2.04-24.47,5.26-35.48
				c3.51-5.29,8.72-8.3,14.87-9.53c0.96-0.19,2.21,0.47,3.17,1.02c3.45,1.99,6.83,4.09,10,6.01c-2.87-3.23-5.92-6.37-8.64-9.79
				c-5.38-6.76-7.63-14.26-3.28-22.33c4.37-8.09,10.87-13.57,20.61-13.7c5.42-0.07,9.61,2.73,13.14,6.6
				c1.03,1.13,1.92,2.39,2.96,3.69c-0.26-4.03-2.32-7.4-7.02-11.63c3.07-8.3,12.21-14.22,20.89-13.44
				c10.41,0.93,18.99,6.03,27.97,12.16c-1.3,0.27-1.8,0.37-2.29,0.48c-10.6,2.44-16.68,9.81-16.73,20.69
				c-0.01,2.64-0.61,4.2-3.24,5.17c-6.35,2.34-12.47,5.41-18.95,7.29c-6.33,1.84-12.35,0.37-17.1-5.03
				c2.04,7.01,8.54,10.76,16.6,8.6c7.04-1.89,13.92-4.66,20.56-7.73c7.16-3.31,14.38-5.42,22.28-4.49
				c5.17,0.61,9.43,2.83,12.13,7.51c4.03,6.98,1.49,11.54-6.35,11.6c-1.43-3.62-2.84-7.21-4.26-10.8c-0.19,0.09-0.38,0.17-0.57,0.26
				c0.01,4.71-0.14,9.43,0.09,14.13c0.11,2.29,2.14,1.87,3.6,1.46c7.73-2.17,15.63-2.75,23.51-1.66c5.05,0.7,10.24,1.79,14.87,3.83
				c8.92,3.92,12.81,11.46,12.26,21.04c-0.51,9.04-4.75,16.24-13.22,19.66c-3.98,1.61-8.86,1.47-13.3,1.32
				c-8.35-0.29-16.68-1.19-23.65-7.13c-1.28,3.08,0.54,4.71,2.48,5.36c4.86,1.63,9.82,3.43,14.86,3.95
				c8.94,0.93,17.99,0.72,26.96,1.45c5.11,0.41,10.17,1.62,15.22,2.65c4.06,0.83,6.88,3.46,8.5,7.16
				c6.19,14.13,5.76,28.32-0.7,42.12c-3.93,8.4-13.38,10.62-22.02,5.8c-10.65-5.93-21.84-10.47-33.97-11.9
				c-6.16-0.73-12.48-0.2-18.72-0.18c-0.7,0-1.41,0.45-2.09,0.94c9.95-0.21,19.63,1.04,29.03,4.24c12.11,4.12,23.77,9.13,34.3,16.55
				c8.55,6.02,12.31,13.98,9.7,24.25c-1.34,5.28-3,10.61-5.45,15.44c-5.3,10.44-10.35,12.49-21.77,10.03
				c-3.97-0.85-7.97-1.52-11.94-2.38c-8.65-1.88-16.75,0.68-24.91,2.95c-3.62,1.01-7.29,2.18-10.76-1.08
				c0.92,3.9,4.86,6.23,8.84,5.4c4.72-0.98,9.37-2.75,14.11-2.98c5.3-0.27,10.68,0.68,15.99,1.4c0.87,0.12,2.06,1.76,2.19,2.81
				c1.15,9.17-2.27,16.8-9.16,22.51c-14.97,12.4-32.06,17.29-51.36,13.21c-0.41-0.09-0.82-0.2-1.23-0.3
				C290.53,502.27,290.39,502.6,290.25,502.94z M338.69,430.22c-5.59-2.56-11.37-2.3-17.12-1.43c-6.82,1.03-13.48,3.26-20.53,2.24
				c-4.83-0.7-8.93-2.82-12.63-5.95c-2.65-2.24-2.07-5.36-2.59-8.21c-1.61-8.85-4.92-16.81-11.7-23.1c-1.13-1.05-1.94-3.03-1.97-4.6
				c-0.07-4.6-0.17-9.29,0.63-13.78c2.04-11.43,8.61-19.28,20.17-21.75c6.06-1.3,12.51-2.15,18.62-1.57
				c12.87,1.24,25.63,3.55,38.44,5.44c4.01,0.59,8.02,1.25,12.02,1.87c0.14-0.45,0.27-0.9,0.41-1.35c-1.58-0.77-3.11-1.71-4.76-2.27
				c-18.15-6.23-36.79-9.37-56.02-8.55c-10.44,0.44-19.96,3.21-27.14,11.43c-1.13,1.29-2.17,2.65-2.71,3.32
				c-4.17-3.79-7.99-7.68-12.27-10.99c-1.93-1.49-2.24-2.73-2.01-4.9c0.52-4.9,0.8-9.83,1.03-14.76c0.07-1.55-0.33-3.12-0.53-4.73
				c2.66-0.2,4.9-0.1,7.01-0.57c8.18-1.85,13.58-8.41,14.72-17.78c0.24-2,0.81-2.93,3.1-3.25c7.06-1,11.81-5.44,15.35-11.36
				c1.14-1.9,0.7-3.1-1.23-3.36c-2.27,2.85-4.12,5.76-6.53,8.06c-4.05,3.86-9.6,3.22-12.93-0.94c-0.93-1.16-2.23-2.03-3.36-3.03
				c4.81,9.47,2.45,15.82-0.73,21.3c-2.31,3.99-5.92,6.58-10.65,5.64c-3.18-0.63-6.37-2.15-9.08-3.97
				c-3.16-2.13-5.95-4.74-10.26-4.9c11.64,9.63,14.79,21.74,9.16,34.9c-0.72-0.09-1.47-0.18-2.22-0.3
				c-8.18-1.29-16.21-0.73-23.96,2.27c-1.65,0.64-3.03,1.95-4.54,2.95c0.17,0.37,0.34,0.74,0.51,1.12c1.25-0.08,2.51-0.11,3.75-0.26
				c6.31-0.77,12.61-1.72,18.93-2.34c6.26-0.61,11.49,1.84,15.44,6.59c4.24,5.11,8.7,10.06,6.66,17.84
				c-1.11,4.25-0.75,8.89-1.08,13.76c-7.9-2.74-15.42-1.8-22.61,2.07c-6.94,3.73-12.41,9.05-16.93,15.42
				c0.77-0.25,1.31-0.76,1.93-1.15c6.18-3.96,12.12-8.39,18.6-11.76c11.14-5.78,20.97-0.03,26.24,6.99
				c7.92,10.57,9.38,22.54,6.6,35.11c-2.6,11.76-7.63,16.05-19.51,17.32c-6.22,0.67-12.48,1.06-18.66,1.99
				c-3.76,0.57-7.41,1.92-11.1,2.92c6.79,0.15,13.34-0.05,19.88-0.24c6.54-0.2,13.08-0.39,19.85-0.59c0.47,1.64,1.01,3.87,1.76,6.03
				c6.11,17.57,27.03,21.99,43.33,19.72c-10.41-0.85-19.81-3.22-28.26-8.57c-5.87-3.72-9.62-9.03-10.83-15.85
				c-0.35-1.95-0.26-4.84,0.91-6.05c4.41-4.55,6.78-9.92,8.02-15.95c0.37-1.77,0.68-3.56,1.05-5.53c0.85,0.45,1.45,0.71,1.98,1.06
				c6.37,4.18,13.14,4.77,20.51,3.04C318.67,432.65,328.35,429.33,338.69,430.22z M347.52,311.81c-4.75-1.52-9.66-2.87-14.4-4.65
				c-22.58-8.49-40.03,4.27-48.86,19.9c-0.64,1.14-0.36,2.8-0.5,4.22c1.15-0.8,2.64-1.36,3.39-2.44
				c4.37-6.31,9.65-11.67,16.01-15.97c5.72-3.88,12.1-5.59,18.79-4.13c5.84,1.28,11.51,3.42,17.15,5.48
				C343.21,315.72,345.73,315.08,347.52,311.81z M274.73,517.05c0.24-0.4,0.47-0.79,0.71-1.19c-2.11-1.6-4.31-3.09-6.31-4.81
				c-2.54-2.19-5.75-4.14-7.22-6.96c-3.8-7.31-7.28-14.95-3.34-23.53c0.29-0.63-0.59-1.79-0.93-2.7c-0.93,0.36-2.32,0.45-2.7,1.12
				c-0.78,1.39-1.23,3.05-1.44,4.66c-1.46,10.82,2.38,20.11,8.76,28.47C265.34,516.13,269.82,517.44,274.73,517.05z"/>
			
				<linearGradient id="SVGID_3_" gradientUnits="userSpaceOnUse" x1="335.5369" y1="194.9268" x2="558.4152" y2="194.9268" gradientTransform="matrix(1.790714e-03 1 -1 1.790714e-03 552.0378 -24.7335)">
				<stop  offset="0" style="stop-color:#FFFFFF"/>
				<stop  offset="1" style="stop-color:#2E3192"/>
			</linearGradient>
			<path class="st5" d="M407.19,393.18c0.09-1.52,0.07-2.84,0.3-4.12c0.14-0.77,0.59-2.01,1.06-2.09c0.82-0.14,2.13,0.19,2.59,0.8
				c1.22,1.65,2.54,3.45,3.03,5.39c2.76,10.75,2.61,21.43-2.74,31.39c-1.57,2.93-4.56,5.18-7.13,7.47
				c-0.83,0.74-2.41,0.62-4.27,1.04c1.24-9.56-2.46-17.56-6.22-26c-0.84,0.71-2.36,1.5-3.02,2.74c-0.32,0.6,0.73,2.29,1.55,3.08
				c5.15,4.99,5.67,11.22,4.77,17.74c-0.48,3.46-1.73,6.81-2.2,10.27c-0.22,1.57,0.6,3.28,0.94,4.93c1.16-1.29,2.61-2.44,3.41-3.93
				c0.69-1.29,0.65-2.97,0.95-4.57c2.04-0.24,3.97-0.47,5.89-0.69c3.52,12.19-2.07,24.2-12.89,27.47c-0.15-1.36-0.3-2.69-0.45-4.02
				c-0.26-0.13-0.53-0.26-0.79-0.4c-1.07,1.52-2.51,2.9-3.15,4.58c-1.69,4.39-2.77,9.03-4.61,13.35c-1.57,3.68-3.46,7.38-5.97,10.45
				c-1.62,1.98-4.6,2.85-6.97,4.22c-0.45-0.37-0.91-0.75-1.36-1.12c1.16-2.97,2.15-6.03,3.55-8.89c0.92-1.87-0.11-4.5-2.47-5.16
				c-3.02-0.84-5.92,0.96-6.87,4.43c1.25-0.35,2.41-0.67,4.04-1.12c-0.92,6.62-2.1,12.61-5.42,17.92
				c-2.45,3.92-7.42,5.23-12.67,3.61c-1.24-0.38-2.44-0.89-3.86-1.41c-0.36,2.49,0.87,3.96,2.75,4.76c1.83,0.77,2.43,1.96,2.28,3.81
				c-0.11,1.42,0.13,2.88-0.11,4.28c-1.43,8.54-7.7,12.32-15.92,9.57c-2.07-0.69-3.99-1.83-6.04-2.61
				c-0.92-0.35-2.48-0.77-2.88-0.34c-0.6,0.63-0.59,2-0.55,3.05c0.03,0.71,0.48,1.46,0.9,2.09c1.91,2.85,1.73,4.78-1.41,6.06
				c-8.05,3.3-16.27,4.27-25.2,0.32c2.22-1.03,4.02-1.68,5.62-2.66c3.08-1.89,6.35-3.63,9.01-6.02c5.12-4.62,4.68-9.18-1.11-15.22
				c3.63-1.02,7.08-2.28,10.65-2.83c1.25-0.19,2.9,1.2,4.14,2.16c1.09,0.85,1.87,2.1,2.78,3.17c2.96-2.22,2.93-2.54-0.75-8.13
				c15.51-7.18,26.05-18.15,26.97-36.52c3.17,0.25,6.17,0.53,9.18,0.72c4.46,0.28,8.26-1.29,11.19-4.6
				c7.54-8.49,12.06-18.33,12.44-29.78c0.29-8.75-3.13-16.04-9.47-22.01c-0.4-0.38-0.81-0.74-1.19-1.14
				c-0.14-0.15-0.2-0.38-0.2-0.38c15.93-5.57,18.6-19.02,19.24-33.2c0.37-8.15-1.79-16.07-4.92-23.71
				c-2.34-5.72-6.33-9.08-12.29-10.25c-3.64-0.71-7.29-1.35-11.26-2.08c1.24-2.29,2.42-4.46,3.7-6.8c1.14,0.12,2.31,0.35,3.47,0.35
				c3.7,0.01,6.21-1.85,7.38-5.44c1.33-4.07,2.53-8.18,3.92-12.22c1.49-4.33,6.65-5.23,9.53-1.58c3.04,3.86,2.75,8.47,2.18,12.97
				c-0.73,5.75-3.16,10.68-8.07,14.13c3.99,3.11,5.4,2.71,9.25-2.37c6.02,2.77,8.51,7.65,7.35,14.46c-1.45,0.36-2.91,0.72-4.64,1.15
				c-1.04-2.7-2.1-5.49-3.17-8.27c-0.29,0.01-0.57,0.01-0.86,0.02c-0.29,0.72-0.89,1.47-0.81,2.14c0.36,3.25,0.67,6.55,1.46,9.71
				c0.62,2.49,2.56,3.4,4.79,1.69c2.54-1.95,4.16-0.83,5.22,1.44c2.98,6.4,2.97,12.97,0.49,19.53c-0.21,0.56-0.98,0.92-1.49,1.37
				c-0.38-0.65-1.03-1.28-1.1-1.97c-0.15-1.41,0.22-2.89-0.03-4.27c-0.17-0.96-1.02-1.81-1.56-2.71c-0.21,0.16-0.43,0.32-0.64,0.48
				c-0.83,5.62-1.72,11.23-2.48,16.86C403.71,391.75,404.03,393.59,407.19,393.18z"/>
			
				<linearGradient id="SVGID_4_" gradientUnits="userSpaceOnUse" x1="269.8582" y1="205.6296" x2="350.962" y2="205.6296" gradientTransform="matrix(1.790714e-03 1 -1 1.790714e-03 552.0378 -24.7335)">
				<stop  offset="0" style="stop-color:#FFFFFF"/>
				<stop  offset="1" style="stop-color:#2E3192"/>
			</linearGradient>
			<path class="st6" d="M373.14,289.64c-1.42,3-2.83,6-4.35,9.2c-8.92-9.12-20.7-9.7-32.83-9.92c-0.14-8.21-2.76-15.01-10.3-18.96
				c-7.01-3.67-14.4-2.99-22.05-1.28c0.48-4.99,1.55-9.28,4.52-12.86c4.97-5.97,11.49-6.47,18.33-4.58
				c4.9,1.36,9.62,3.39,14.87,4.48c-4.36-2.95-8.73-5.89-12.85-8.67c9.7-3.89,20.34-0.25,25.65,9.27c1.6,2.86,2.82,5.94,4.12,8.96
				c1.11,2.58,2.84,4.1,5.63,5.02c4.77,1.58,9.6,3.29,13.96,5.73c10.77,6.05,14.82,16.66,11.09,28.44
				c-1.98,6.25-4.39,12.37-6.67,18.52c-0.37,1.01-0.92,2.12-1.72,2.74c-0.75,0.58-2.11,1.01-2.89,0.7c-0.69-0.27-1.43-1.73-1.3-2.52
				c1.12-6.52-0.44-12.49-2.53-18.66c-1.15-3.41-0.09-7.57,0.03-11.39c0.04-1.29,0.27-2.57,0.42-3.85
				C373.9,289.89,373.52,289.76,373.14,289.64z M364.48,275.59c-1.45-0.98-2.39-2.15-3.42-2.22c-5.05-0.36-8.51-2.91-10.94-7.15
				c-0.05-0.08-0.4,0.01-1,0.04c-0.59,3.36,0.54,6.34,2.36,9.06c0.42,0.62,1.75,0.91,2.65,0.89
				C357.31,276.13,360.49,275.85,364.48,275.59z"/>
			
				<linearGradient id="SVGID_5_" gradientUnits="userSpaceOnUse" x1="314.5418" y1="260.5426" x2="507.6553" y2="260.5426" gradientTransform="matrix(1.790714e-03 1 -1 1.790714e-03 552.0378 -24.7335)">
				<stop  offset="0" style="stop-color:#FFFFFF"/>
				<stop  offset="1" style="stop-color:#2E3192"/>
			</linearGradient>
			<path class="st7" d="M338.69,430.22c-10.34-0.89-20.02,2.43-29.81,4.73c-7.37,1.73-14.13,1.14-20.51-3.04
				c-0.54-0.35-1.13-0.61-1.98-1.06c-0.37,1.97-0.69,3.76-1.05,5.53c-1.24,6.03-3.61,11.4-8.02,15.95c-1.17,1.21-1.26,4.1-0.91,6.05
				c1.22,6.82,4.96,12.14,10.83,15.85c8.45,5.35,17.85,7.72,28.26,8.57c-16.3,2.27-37.22-2.15-43.33-19.72
				c-0.75-2.16-1.29-4.39-1.76-6.03c-6.77,0.2-13.31,0.39-19.85,0.59c-6.55,0.2-13.09,0.4-19.88,0.24c3.7-1,7.34-2.35,11.1-2.92
				c6.18-0.93,12.44-1.33,18.66-1.99c11.88-1.27,16.91-5.57,19.51-17.32c2.79-12.57,1.33-24.54-6.6-35.11
				c-5.27-7.03-15.1-12.78-26.24-6.99c-6.49,3.37-12.43,7.79-18.6,11.76c-0.62,0.4-1.17,0.91-1.93,1.15
				c4.51-6.37,9.99-11.69,16.93-15.42c7.19-3.87,14.71-4.81,22.61-2.07c0.33-4.87-0.03-9.51,1.08-13.76
				c2.04-7.79-2.43-12.73-6.66-17.84c-3.95-4.76-9.17-7.2-15.44-6.59c-6.33,0.62-12.62,1.56-18.93,2.34
				c-1.24,0.15-2.5,0.18-3.75,0.26c-0.17-0.37-0.34-0.74-0.51-1.12c1.51-1,2.89-2.31,4.54-2.95c7.75-3,15.78-3.56,23.96-2.27
				c0.75,0.12,1.5,0.2,2.22,0.3c5.63-13.16,2.47-25.27-9.16-34.9c4.31,0.16,7.1,2.77,10.26,4.9c2.71,1.83,5.9,3.34,9.08,3.97
				c4.73,0.94,8.35-1.65,10.65-5.64c3.17-5.49,5.54-11.84,0.73-21.3c1.13,1,2.43,1.87,3.36,3.03c3.33,4.17,8.88,4.8,12.93,0.94
				c2.42-2.3,4.26-5.21,6.53-8.06c1.92,0.26,2.37,1.46,1.23,3.36c-3.54,5.91-8.29,10.35-15.35,11.36c-2.3,0.33-2.86,1.25-3.1,3.25
				c-1.13,9.37-6.53,15.93-14.72,17.78c-2.11,0.48-4.35,0.37-7.01,0.57c0.19,1.62,0.6,3.19,0.53,4.73
				c-0.23,4.92-0.51,9.86-1.03,14.76c-0.23,2.16,0.08,3.41,2.01,4.9c4.28,3.31,8.1,7.19,12.27,10.99c0.54-0.66,1.58-2.03,2.71-3.32
				c7.18-8.22,16.69-10.99,27.14-11.43c19.23-0.82,37.87,2.32,56.02,8.55c1.65,0.57,3.17,1.51,4.76,2.27
				c-0.14,0.45-0.27,0.9-0.41,1.35c-4.01-0.63-8.01-1.28-12.02-1.87c-12.8-1.89-25.57-4.2-38.44-5.44
				c-6.12-0.59-12.56,0.27-18.62,1.57c-11.56,2.47-18.13,10.33-20.17,21.75c-0.8,4.5-0.71,9.19-0.63,13.78
				c0.03,1.57,0.83,3.54,1.97,4.6c6.78,6.29,10.09,14.25,11.7,23.1c0.52,2.85-0.05,5.97,2.59,8.21c3.69,3.13,7.8,5.25,12.63,5.95
				c7.05,1.03,13.71-1.2,20.53-2.24C327.31,427.91,333.1,427.66,338.69,430.22z"/>
			
				<linearGradient id="SVGID_6_" gradientUnits="userSpaceOnUse" x1="328.7561" y1="237.0204" x2="355.5291" y2="237.0204" gradientTransform="matrix(1.790714e-03 1 -1 1.790714e-03 552.0378 -24.7335)">
				<stop  offset="0" style="stop-color:#FFFFFF"/>
				<stop  offset="1" style="stop-color:#2E3192"/>
			</linearGradient>
			<path class="st8" d="M347.52,311.81c-1.79,3.27-4.31,3.91-8.43,2.4c-5.64-2.06-11.31-4.2-17.15-5.48
				c-6.69-1.46-13.07,0.25-18.79,4.13c-6.36,4.31-11.64,9.66-16.01,15.97c-0.75,1.08-2.24,1.64-3.39,2.44
				c0.15-1.42-0.14-3.08,0.5-4.22c8.84-15.64,26.28-28.39,48.86-19.9C337.86,308.94,342.77,310.29,347.52,311.81z"/>
			
				<linearGradient id="SVGID_7_" gradientUnits="userSpaceOnUse" x1="502.0652" y1="288.6586" x2="541.3452" y2="288.6586" gradientTransform="matrix(1.790714e-03 1 -1 1.790714e-03 552.0378 -24.7335)">
				<stop  offset="0" style="stop-color:#FFFFFF"/>
				<stop  offset="1" style="stop-color:#2E3192"/>
			</linearGradient>
			<path class="st9" d="M274.73,517.05c-4.91,0.39-9.39-0.91-12.46-4.94c-6.37-8.36-10.22-17.65-8.76-28.47
				c0.22-1.6,0.66-3.27,1.44-4.66c0.37-0.67,1.77-0.76,2.7-1.12c0.34,0.91,1.22,2.08,0.93,2.7c-3.94,8.58-0.46,16.22,3.34,23.53
				c1.46,2.81,4.67,4.76,7.22,6.96c2,1.72,4.2,3.22,6.31,4.81C275.2,516.26,274.97,516.65,274.73,517.05z"/>
			
				<linearGradient id="SVGID_8_" gradientUnits="userSpaceOnUse" x1="290.5617" y1="195.8436" x2="300.5864" y2="195.8436" gradientTransform="matrix(1.790714e-03 1 -1 1.790714e-03 552.0378 -24.7335)">
				<stop  offset="0" style="stop-color:#FFFFFF"/>
				<stop  offset="1" style="stop-color:#2E3192"/>
			</linearGradient>
			<path class="st10" d="M364.48,275.59c-4,0.26-7.17,0.54-10.34,0.62c-0.9,0.02-2.23-0.26-2.65-0.89
				c-1.82-2.71-2.95-5.69-2.36-9.06c0.6-0.03,0.95-0.12,1-0.04c2.44,4.24,5.9,6.79,10.94,7.15
				C362.09,273.44,363.03,274.61,364.48,275.59z"/>
		</g>
	</g>
</g>
</svg>
